<svg width="179" height="273" viewBox="0 0 179 273" fill="none" xmlns="http://www.w3.org/2000/svg">
<path fill-rule="evenodd" clip-rule="evenodd" d="M68 0H14C6.26801 0 0 6.26802 0 14V129C0 136.732 6.26801 143 14 143H165C172.732 143 179 136.732 179 129V14C179 6.26801 172.732 0 165 0H111V17.875H68V0Z" fill="#FFF5E9"/>
<g filter="url(#filter0_i_836_284)">
<rect x="68" y="18" width="43" height="93" fill="#E1E1E1"/>
</g>
<path fill-rule="evenodd" clip-rule="evenodd" d="M0 125C0 117.268 6.26801 111 14 111H165C172.732 111 179 117.268 179 125V189.9L171 195.5V231.5H179V271C179 272.105 178.105 273 177 273H2C0.895431 273 0 272.105 0 271V231.5H13V195.5L0 186.4V125Z" fill="#D7D9D6"/>
<path d="M25 149C25 141.268 31.268 135 39 135H140C147.732 135 154 141.268 154 149V271C154 272.105 153.105 273 152 273H27C25.8954 273 25 272.105 25 271V149Z" fill="#E04128"/>
<mask id="mask0_836_284" style="mask-type:alpha" maskUnits="userSpaceOnUse" x="25" y="135" width="129" height="138">
<rect x="25" y="135" width="129" height="49" fill="#D9D9D9"/>
<rect x="63" y="147" width="52" height="38" transform="rotate(90 63 147)" fill="#D9D9D9"/>
<rect x="154" y="147" width="52" height="38" transform="rotate(90 154 147)" fill="#D9D9D9"/>
<rect width="129" height="49" transform="matrix(1 0 0 -1 25 273)" fill="#D9D9D9"/>
<rect width="52" height="53" transform="matrix(-4.37114e-08 -1 -1 4.37114e-08 116 261)" fill="#D9D9D9"/>
</mask>
<g mask="url(#mask0_836_284)">
<g filter="url(#filter1_i_836_284)">
<path d="M25 149C25 141.268 31.268 135 39 135H140C147.732 135 154 141.268 154 149V271C154 272.105 153.105 273 152 273H27C25.8954 273 25 272.105 25 271V149Z" fill="#97A5B2"/>
</g>
</g>
<path fill-rule="evenodd" clip-rule="evenodd" d="M69 147H110H111H112V156H154V158H112H111H110V149H69V158H68H67H25V156H67V147H68H69Z" fill="#7F8792"/>
<path fill-rule="evenodd" clip-rule="evenodd" d="M69 245H110H111H112V254H154V256H112H111H110V247H69V256H68H67H25V254H67V245H68H69Z" fill="#7F8792"/>
<g filter="url(#filter2_i_836_284)">
<rect x="8" y="243" width="10" height="18" fill="#F4F8F7"/>
</g>
<rect x="11" y="247" width="3" height="3" fill="#2D334B"/>
<rect x="11" y="253" width="3" height="3" fill="#2D334B"/>
<rect x="72" y="57" width="37" height="30" fill="#D9D9D9"/>
<rect x="72" y="12" width="34" height="43" fill="#FFF5E9"/>
<rect x="73" y="41" width="33" height="14" fill="#DFE1DE"/>
<path fill-rule="evenodd" clip-rule="evenodd" d="M101.021 22.5999C101.021 20.1388 99.8472 17.6778 97.5 15.8001C92.8056 12.0445 85.1944 12.0445 80.5 15.8001C77.9628 17.8298 76.7969 20.5411 77.0023 23.1973V26.5361C76.7969 29.1923 77.9628 31.9036 80.5 33.9334C85.1944 37.6889 92.8056 37.6889 97.5 33.9334C99.9467 31.976 101.118 29.3849 101.014 26.8205H101.076V22.5999H101.021ZM99.5351 22.4971C99.503 20.3745 98.4746 18.2597 96.45 16.64C92.3355 13.3484 85.6645 13.3484 81.55 16.64C79.5254 18.2597 78.497 20.3745 78.4649 22.4971C78.9991 21.721 79.6775 20.9914 80.5 20.3334C85.1944 16.5779 92.8056 16.5779 97.5 20.3334C98.3225 20.9914 99.0009 21.721 99.5351 22.4971Z" fill="#FFF5E9"/>
<circle r="10.8853" transform="matrix(0.780869 -0.624695 0.780869 0.624695 89 27.1333)" fill="#D7D9D6"/>
<rect x="77.0023" y="22.5999" width="24.0733" height="4.22064" fill="#D7D9D6"/>
<circle r="9.6153" transform="matrix(0.780869 -0.624695 0.780869 0.624695 88.9625 22.6718)" fill="#444257"/>
<path d="M95.7218 17.1913C99.4342 20.1612 99.4342 24.9763 95.7218 27.9462C92.0095 30.9161 85.9906 30.9161 82.2782 27.9462C78.5659 24.9763 78.5659 20.1612 82.2782 17.1913C85.9906 14.2214 92.0095 14.2214 95.7218 17.1913ZM83.043 27.3343C86.333 29.9663 91.6671 29.9663 94.957 27.3343C98.247 24.7024 98.247 20.4351 94.957 17.8031C91.6671 15.1712 86.333 15.1712 83.043 17.8031C79.7531 20.4351 79.7531 24.7024 83.043 27.3343Z" fill="#8D90AA"/>
<path d="M94.0609 18.3636C96.856 20.5997 96.856 24.225 94.0609 26.4611C91.2659 28.6971 86.7342 28.6971 83.9391 26.4611C81.144 24.225 81.144 20.5997 83.9391 18.3636C86.7342 16.1276 91.2659 16.1276 94.0609 18.3636ZM84.6843 25.8649C87.0678 27.7717 90.9322 27.7717 93.3157 25.8649C95.6992 23.9581 95.6992 20.8666 93.3157 18.9598C90.9322 17.053 87.0678 17.053 84.6843 18.9598C82.3008 20.8666 82.3008 23.9581 84.6843 25.8649Z" fill="#8D90AA"/>
<path d="M95.2481 15.2528L95.7847 15.8539L81.6355 30.0031L81.0988 29.402L95.2481 15.2528Z" fill="#C7C8DA"/>
<path d="M96.2858 29.4342L95.6848 29.9709L81.5355 15.8216L82.1366 15.285L96.2858 29.4342Z" fill="#C7C8DA"/>
<path d="M97.5 15.8C102.194 19.5555 102.194 25.6444 97.5 29.4C92.8056 33.1555 85.1944 33.1555 80.5 29.4C75.8056 25.6444 75.8056 19.5555 80.5 15.8C85.1944 12.0444 92.8056 12.0444 97.5 15.8ZM81.55 28.56C85.6645 31.8516 92.3355 31.8516 96.45 28.56C100.565 25.2684 100.565 19.9316 96.45 16.64C92.3355 13.3483 85.6645 13.3483 81.55 16.64C77.4354 19.9316 77.4354 25.2684 81.55 28.56Z" fill="#FFF5E9"/>
<rect x="88.101" y="13.5333" width="1.87584" height="17.6642" fill="#FFF5E9"/>
<rect x="99.6686" y="21.3492" width="1.71952" height="21.8848" transform="rotate(90 99.6686 21.3492)" fill="#FFF5E9"/>
<circle r="3.6773" transform="matrix(0.780869 -0.624695 0.780869 0.624695 88.8061 22.192)" fill="#FFF5E9"/>
<rect x="72" y="54" width="34" height="43" fill="#FFF5E9"/>
<rect x="73" y="83" width="33" height="14" fill="#DFE1DE"/>
<path fill-rule="evenodd" clip-rule="evenodd" d="M101.021 64.5999C101.021 62.1388 99.8472 59.6778 97.5 57.8001C92.8056 54.0445 85.1944 54.0445 80.5 57.8001C77.9628 59.8298 76.7969 62.5411 77.0023 65.1973V68.5361C76.7969 71.1923 77.9628 73.9036 80.5 75.9334C85.1944 79.6889 92.8056 79.6889 97.5 75.9334C99.9467 73.976 101.118 71.3849 101.014 68.8205H101.076V64.5999H101.021ZM99.5351 64.4971C99.503 62.3745 98.4746 60.2597 96.45 58.64C92.3355 55.3484 85.6645 55.3484 81.55 58.64C79.5254 60.2597 78.497 62.3745 78.4649 64.4971C78.9991 63.721 79.6775 62.9914 80.5 62.3334C85.1944 58.5779 92.8056 58.5779 97.5 62.3334C98.3225 62.9914 99.0009 63.721 99.5351 64.4971Z" fill="#FFF5E9"/>
<circle r="10.8853" transform="matrix(0.780869 -0.624695 0.780869 0.624695 89 69.1333)" fill="#D7D9D6"/>
<rect x="77.0023" y="64.5999" width="24.0733" height="4.22064" fill="#D7D9D6"/>
<circle r="9.6153" transform="matrix(0.780869 -0.624695 0.780869 0.624695 88.9625 64.6718)" fill="#444257"/>
<path d="M95.7218 59.1913C99.4342 62.1612 99.4342 66.9763 95.7218 69.9462C92.0095 72.9161 85.9906 72.9161 82.2782 69.9462C78.5659 66.9763 78.5659 62.1612 82.2782 59.1913C85.9906 56.2214 92.0095 56.2214 95.7218 59.1913ZM83.043 69.3343C86.333 71.9663 91.6671 71.9663 94.957 69.3343C98.247 66.7024 98.247 62.4351 94.957 59.8031C91.6671 57.1712 86.333 57.1712 83.043 59.8031C79.7531 62.4351 79.7531 66.7024 83.043 69.3343Z" fill="#8D90AA"/>
<path d="M94.0609 60.3636C96.856 62.5997 96.856 66.225 94.0609 68.4611C91.2659 70.6971 86.7342 70.6971 83.9391 68.4611C81.144 66.225 81.144 62.5997 83.9391 60.3636C86.7342 58.1276 91.2659 58.1276 94.0609 60.3636ZM84.6843 67.8649C87.0678 69.7717 90.9322 69.7717 93.3157 67.8649C95.6992 65.9581 95.6992 62.8666 93.3157 60.9598C90.9322 59.053 87.0678 59.053 84.6843 60.9598C82.3008 62.8666 82.3008 65.9581 84.6843 67.8649Z" fill="#8D90AA"/>
<path d="M95.2481 57.2528L95.7847 57.8539L81.6355 72.0031L81.0988 71.402L95.2481 57.2528Z" fill="#C7C8DA"/>
<path d="M96.2858 71.4342L95.6848 71.9709L81.5355 57.8216L82.1366 57.285L96.2858 71.4342Z" fill="#C7C8DA"/>
<path d="M97.5 57.8C102.194 61.5555 102.194 67.6444 97.5 71.4C92.8056 75.1555 85.1944 75.1555 80.5 71.4C75.8056 67.6444 75.8056 61.5555 80.5 57.8C85.1944 54.0444 92.8056 54.0444 97.5 57.8ZM81.55 70.56C85.6645 73.8516 92.3355 73.8516 96.45 70.56C100.565 67.2684 100.565 61.9316 96.45 58.64C92.3355 55.3483 85.6645 55.3483 81.55 58.64C77.4354 61.9316 77.4354 67.2684 81.55 70.56Z" fill="#FFF5E9"/>
<rect x="88.101" y="55.5333" width="1.87584" height="17.6642" fill="#FFF5E9"/>
<rect x="99.6686" y="63.3492" width="1.71952" height="21.8848" transform="rotate(90 99.6686 63.3492)" fill="#FFF5E9"/>
<circle r="3.6773" transform="matrix(0.780869 -0.624695 0.780869 0.624695 88.8061 64.192)" fill="#FFF5E9"/>
<rect x="21" y="78" width="28" height="4" fill="#D9D9D9"/>
<rect x="130" y="78" width="28" height="4" fill="#D9D9D9"/>
<rect x="21" y="53" width="28" height="4" fill="#D9D9D9"/>
<rect x="130" y="53" width="28" height="4" fill="#D9D9D9"/>
<rect x="21" y="28" width="28" height="4" fill="#D9D9D9"/>
<rect x="130" y="28" width="28" height="4" fill="#D9D9D9"/>
<defs>
<filter id="filter0_i_836_284" x="68" y="18" width="43" height="93" filterUnits="userSpaceOnUse" color-interpolation-filters="sRGB">
<feFlood flood-opacity="0" result="BackgroundImageFix"/>
<feBlend mode="normal" in="SourceGraphic" in2="BackgroundImageFix" result="shape"/>
<feColorMatrix in="SourceAlpha" type="matrix" values="0 0 0 0 0 0 0 0 0 0 0 0 0 0 0 0 0 0 127 0" result="hardAlpha"/>
<feOffset dx="9"/>
<feComposite in2="hardAlpha" operator="arithmetic" k2="-1" k3="1"/>
<feColorMatrix type="matrix" values="0 0 0 0 0.843137 0 0 0 0 0.85098 0 0 0 0 0.839216 0 0 0 1 0"/>
<feBlend mode="normal" in2="shape" result="effect1_innerShadow_836_284"/>
</filter>
<filter id="filter1_i_836_284" x="25" y="135" width="129" height="138" filterUnits="userSpaceOnUse" color-interpolation-filters="sRGB">
<feFlood flood-opacity="0" result="BackgroundImageFix"/>
<feBlend mode="normal" in="SourceGraphic" in2="BackgroundImageFix" result="shape"/>
<feColorMatrix in="SourceAlpha" type="matrix" values="0 0 0 0 0 0 0 0 0 0 0 0 0 0 0 0 0 0 127 0" result="hardAlpha"/>
<feOffset dx="4" dy="5"/>
<feComposite in2="hardAlpha" operator="arithmetic" k2="-1" k3="1"/>
<feColorMatrix type="matrix" values="0 0 0 0 0.498039 0 0 0 0 0.529412 0 0 0 0 0.572549 0 0 0 1 0"/>
<feBlend mode="normal" in2="shape" result="effect1_innerShadow_836_284"/>
</filter>
<filter id="filter2_i_836_284" x="8" y="243" width="10" height="18" filterUnits="userSpaceOnUse" color-interpolation-filters="sRGB">
<feFlood flood-opacity="0" result="BackgroundImageFix"/>
<feBlend mode="normal" in="SourceGraphic" in2="BackgroundImageFix" result="shape"/>
<feColorMatrix in="SourceAlpha" type="matrix" values="0 0 0 0 0 0 0 0 0 0 0 0 0 0 0 0 0 0 127 0" result="hardAlpha"/>
<feOffset dx="-1" dy="-1"/>
<feComposite in2="hardAlpha" operator="arithmetic" k2="-1" k3="1"/>
<feColorMatrix type="matrix" values="0 0 0 0 0 0 0 0 0 0 0 0 0 0 0 0 0 0 0.25 0"/>
<feBlend mode="normal" in2="shape" result="effect1_innerShadow_836_284"/>
</filter>
</defs>
</svg>
