<svg width="16" height="16" viewBox="0 0 16 10" fill="none" xmlns="http://www.w3.org/2000/svg">
<path fill-rule="evenodd" clip-rule="evenodd" d="M1.3278 9.98061C1.5598 9.98415 1.7887 9.92845 1.9917 9.81908L7.30289 6.98248L7.30289 8.64955C7.30338 9.111 7.55664 9.53719 7.96738 9.76772C8.37811 9.99824 8.88397 9.99811 9.29459 9.76738L15.342706 6.32987C15.737759 6.10493 15.9859253 5.69782 15.999420763 5.25255C16.0129163 4.80729 15.789838 4.38665 15.409096 4.13943L9.36098 0.217303C8.95393 -0.0470159 8.4305 -0.0720172 7.99881 0.15224C7.56712 0.376497 7.29716 0.813662 7.29625 1.28991V3.29297C7.29625 3.64983 7.59349 3.93912 7.96015 3.93912C8.32681 3.93912 8.62405 3.64983 8.62405 3.29297V1.27053L14.67881 5.23142L8.63069 8.66893V7.00833C8.63739 6.54341 8.38696 6.11083 7.97491 5.87556C7.56285 5.64028 7.05269 5.63858 6.63899 5.87111L1.3278 8.7077L1.3278 1.75514L5.039 3.39636C5.3727 3.54445 5.7665 3.40125 5.9187 3.07651C6.07082 2.75177 5.9237 2.36846 5.59 2.22036L1.8788 0.579146C1.4678 0.396662 0.9896 0.430129 0.6096 0.667978C0.2296 0.905827 -0.0001 1.31542 0 1.75514V8.7077C0 9.42142 0.5945 10 1.3278 10V9.98061Z" fill="white"/>
</svg>