<svg width="16" height="16" viewBox="0 0 16 10" fill="none" xmlns="http://www.w3.org/2000/svg">
<path fill-rule="evenodd" clip-rule="evenodd" d="M14.6722 9.98061C14.4402 9.98415 14.2113 9.92845 14.0083 9.81908L8.69711 6.98248L8.69711 8.64955C8.69662 9.111 8.44336 9.53719 8.03262 9.76772C7.62189 9.99824 7.11603 9.99811 6.70541 9.76738L0.657294 6.32987C0.262241 6.10493 0.0140747 5.69782 0.000579237 5.25255C-0.0129163 4.80729 0.210162 4.38665 0.590904 4.13943L6.63902 0.217303C7.04607 -0.0470159 7.5695 -0.0720172 8.00119 0.15224C8.43288 0.376497 8.70284 0.813662 8.70375 1.28991V3.29297C8.70375 3.64983 8.40651 3.93912 8.03985 3.93912C7.67319 3.93912 7.37595 3.64983 7.37595 3.29297V1.27053L1.32119 5.23142L7.36931 8.66893V7.00833C7.36261 6.54341 7.61304 6.11083 8.02509 5.87556C8.43715 5.64028 8.94731 5.63858 9.36101 5.87111L14.6722 8.7077L14.6722 1.75514L10.961 3.39636C10.6273 3.54445 10.2335 3.40125 10.0813 3.07651C9.92918 2.75177 10.0763 2.36846 10.41 2.22036L14.1212 0.579146C14.5322 0.396662 15.0104 0.430129 15.3904 0.667978C15.7704 0.905827 16.0001 1.31542 16 1.75514V8.7077C16 9.42142 15.4055 10 14.6722 10V9.98061Z" fill="white"/>
</svg>