<svg width="10" height="14" viewBox="0 0 10 14" fill="none" xmlns="http://www.w3.org/2000/svg">
<path fill-rule="evenodd" clip-rule="evenodd" d="M3.33431 13.3333H2.77875C2.47193 13.3333 2.2232 13.0846 2.2232 12.7778C2.2232 12.471 2.47193 12.2222 2.77875 12.2222V1.11111H1.11209V12.7778C1.11209 13.0846 0.863357 13.3333 0.556532 13.3333C0.249707 13.3333 0.000976562 13.0846 0.000976562 12.7778V0.555556C0.000976562 0.248731 0.249707 0 0.556532 0H3.33431C3.64113 0 3.88987 0.248731 3.88987 0.555556V12.7778C3.88987 13.0846 3.64113 13.3333 3.33431 13.3333ZM10.001 12.7778V0.555556C10.001 0.248731 9.75225 0 9.44542 0C9.1386 0 8.88986 0.248731 8.88986 0.555556V12.2222H7.2232V1.11111C7.53002 1.11111 7.77875 0.86238 7.77875 0.555556C7.77875 0.248731 7.53002 0 7.2232 0H6.66764C6.36082 0 6.11209 0.248731 6.11209 0.555556V12.7778C6.11209 13.0846 6.36082 13.3333 6.66764 13.3333H9.44542C9.75225 13.3333 10.001 13.0846 10.001 12.7778Z" fill="#00AFBD"/>
</svg>