<svg width="10" height="11" viewBox="0 0 10 11" fill="none" xmlns="http://www.w3.org/2000/svg">
<path d="M0.00762737 1.42857L0.00762721 3.27331C-3.24861e-07 3.80722 0.0339066 4.49821 0.779727 4.49821C1.52555 4.49821 1.54088 3.75918 1.53318 3.24471L1.53318 1.40712L8.48204 5.21101L1.52555 9.59406L1.52555 7.35606C1.52555 6.96116 1.18404 6.64104 0.762773 6.64104C0.341504 6.64104 -6.00588e-07 6.96116 -6.35111e-07 7.35606L-8.28888e-07 9.57261C0.00103863 10.0996 0.311213 10.5834 0.80719 10.8315C1.30317 11.0797 1.90455 11.052 2.37222 10.7595L9.32109 6.41938C9.75854 6.14582 10.0148 5.68035 9.99934 5.18762C9.98383 4.6949 9.6987 4.2444 9.24482 3.99548L5.77038 2.09353L2.29595 0.19159C1.82418 -0.063731 1.24298 -0.0638712 0.771077 0.191222C0.299173 0.446316 0.00818627 0.917927 0.00762737 1.42857Z" fill="#00AFBD"/>
</svg>