<svg width="14" height="14" viewBox="0 0 13 14" fill="none" xmlns="http://www.w3.org/2000/svg">
<path fill-rule="evenodd" clip-rule="evenodd" d="M10.3488 10.6298C10.574 10.8564 10.574 11.2224 10.3488 11.4489C8.1109 13.692 4.52273 13.8322 2.11673 11.7705C-0.289264 9.70876 -0.700535 6.14148 1.17319 3.58637C3.04691 1.03125 6.57285 0.351213 9.26242 2.02621L9.15786 0.626162C9.13379 0.305321 9.37438 0.0257217 9.69522 0.00165869C10.0161 -0.0224043 10.2957 0.218181 10.3197 0.539022L10.5172 3.24617C10.5337 3.48709 10.3994 3.71306 10.1799 3.81376C9.96044 3.91447 9.70155 3.86889 9.52965 3.6993C8.12916 2.29838 6.02264 1.87912 4.19248 2.63703C2.36231 3.39495 1.16897 5.18076 1.16897 7.16166C1.16897 9.14256 2.36231 10.9284 4.19248 11.6863C6.02264 12.4442 8.12916 12.0249 9.52965 10.624C9.75783 10.4004 10.1238 10.403 10.3488 10.6298ZM10.7928 4.96572L11.6468 4.87277C11.9638 4.8363 12.192 4.551 12.158 4.23375C12.1216 3.91677 11.8363 3.68853 11.519 3.72253L10.665 3.81547C10.3442 3.83312 10.0984 4.10752 10.1161 4.42836C10.1337 4.7492 10.4081 4.99499 10.7289 4.97734L10.7928 4.96572Z" fill="white"/>
</svg>