<svg width="18" height="14" viewBox="0 0 18 14" fill="none" xmlns="http://www.w3.org/2000/svg">
<path fill-rule="evenodd" clip-rule="evenodd" d="M12.6667 10.2917V11.875H13.4583C15.6445 11.875 17.4167 10.1028 17.4167 7.91667C17.4167 5.92559 15.9466 4.27787 14.0326 3.99969C13.3594 1.66695 11.2089 0 8.70833 0C6.85064 0 5.15297 0.922349 4.13241 2.4148C1.79473 2.71816 0 4.71736 0 7.125C0 9.74835 2.12665 11.875 4.75 11.875V10.2917C3.0011 10.2917 1.58333 8.8739 1.58333 7.125C1.58333 5.42327 2.92864 4.02733 4.62306 3.96082L5.05927 3.9437L5.27758 3.56565C5.98049 2.34842 7.27732 1.58333 8.70833 1.58333C10.6488 1.58333 12.2949 2.98954 12.612 4.88154L12.7251 5.55606L13.4088 5.54217C13.4335 5.54175 13.4335 5.54175 13.4583 5.54167C14.77 5.54167 15.8333 6.60499 15.8333 7.91667C15.8333 9.22834 14.77 10.2917 13.4583 10.2917H12.6667ZM9.49998 13.4583V8.24458L11.3152 10.0598L12.4348 8.9402L8.70832 5.21374L4.98186 8.9402L6.10144 10.0598L7.91665 8.24458V13.4583H9.49998Z" fill="#FFF"/>
</svg>